<svg id="Capa_1" data-name="Capa 1" xmlns="http://www.w3.org/2000/svg" viewBox="0 0 27.76 29.37"><defs><style>.cls-1{fill:#86569e;}.cls-2,.cls-4{opacity:0.3;}.cls-3{fill:#1e1e1c;}.cls-4{fill:#fff;}</style></defs><path class="cls-1" d="M291.48,431.81l-6.12,3.6a1,1,0,0,1-1.51-.86l0-18.21,8.12,5.25,0,9.35A1,1,0,0,1,291.48,431.81Z" transform="translate(-283.83 -406.18)"/><path class="cls-1" d="M304,431.81l6.12,3.6a1,1,0,0,0,1.51-.86V416.34l-8.11,5.25,0,9.35A1,1,0,0,0,304,431.81Z" transform="translate(-283.83 -406.18)"/><g class="cls-2"><path class="cls-3" d="M291.48,431.81l-6.12,3.6a1,1,0,0,1-1.51-.86l0-18.21,8.12,5.25,0,9.35A1,1,0,0,1,291.48,431.81Z" transform="translate(-283.83 -406.18)"/><path class="cls-3" d="M304,431.81l6.12,3.6a1,1,0,0,0,1.51-.86V416.34l-8.11,5.25,0,9.35A1,1,0,0,0,304,431.81Z" transform="translate(-283.83 -406.18)"/></g><path class="cls-1" d="M283.83,407.18v8.17l13.88,9,13.88-9v-8.17a1,1,0,0,0-1.54-.84l-12.34,8-12.33-8A1,1,0,0,0,283.83,407.18Z" transform="translate(-283.83 -406.18)"/><path class="cls-4" d="M297.71,424.35l-13.88-9v-8.16a1,1,0,0,1,1.55-.84l12.33,8.06Z" transform="translate(-283.83 -406.18)"/></svg>