<svg id="Capa_1" data-name="Capa 1" xmlns="http://www.w3.org/2000/svg" viewBox="0 0 27.76 29.37"><defs><style>.cls-1{fill:#9653b8;}.cls-2,.cls-4{opacity:0.3;}.cls-3{fill:#1d1d1b;}.cls-4{fill:#fff;}</style></defs><path class="cls-1" d="M429.16,166.83V175L443,184l13.88-9v-8.17a1,1,0,0,0-1.54-.84L443,174l-12.34-8A1,1,0,0,0,429.16,166.83Z" transform="translate(-429.16 -165.83)"/><path class="cls-1" d="M436.8,191.46l-6.12,3.6a1,1,0,0,1-1.5-.86l0-18.21,8.12,5.25v9.35A1,1,0,0,1,436.8,191.46Z" transform="translate(-429.16 -165.83)"/><path class="cls-1" d="M449.28,191.46l6.12,3.6a1,1,0,0,0,1.5-.86l0-18.21-8.12,5.25v9.35A1,1,0,0,0,449.28,191.46Z" transform="translate(-429.16 -165.83)"/><g class="cls-2"><path class="cls-3" d="M436.8,191.46l-6.12,3.6a1,1,0,0,1-1.5-.86l0-18.21,8.12,5.25v9.35A1,1,0,0,1,436.8,191.46Z" transform="translate(-429.16 -165.83)"/><path class="cls-3" d="M449.28,191.46l6.12,3.6a1,1,0,0,0,1.5-.86l0-18.21-8.12,5.25v9.35A1,1,0,0,0,449.28,191.46Z" transform="translate(-429.16 -165.83)"/></g><path class="cls-4" d="M443,184l-13.88-9v-8.16a1,1,0,0,1,1.55-.83L443,174.05Z" transform="translate(-429.16 -165.83)"/></svg>